<?xml version="1.0" encoding="utf-8"?>
<!-- Generator: Adobe Illustrator 16.0.4, SVG Export Plug-In . SVG Version: 6.00 Build 0)  -->
<!DOCTYPE svg PUBLIC "-//W3C//DTD SVG 1.1//EN" "http://www.w3.org/Graphics/SVG/1.1/DTD/svg11.dtd">
<svg version="1.1" id="Layer_1" xmlns="http://www.w3.org/2000/svg" xmlns:xlink="http://www.w3.org/1999/xlink" x="0px" y="0px"
	 width="320.249px" height="340.483px" viewBox="0 0 320.249 340.483" enable-background="new 0 0 320.249 340.483"
	 xml:space="preserve">
<g>
	<path fill="#BA9471" d="M150.873,332.514c55.389,0,103.714-30.227,129.385-75.082c-65.422,22.834-109.738,55.285-132.604,75.041
		C148.726,332.498,149.796,332.514,150.873,332.514"/>
	<path fill="#BA9471" d="M140.438,41.26c1.418,0.435,2.535,0.811,3.407,1.146c0.637,0.234,1.755,0.708,2.684,1.219l0.308,0.167
		c0.888,0.502,1.71,1.081,2.464,1.723c22.4,0.01,43.983,5.34,63.315,15.379c0.708-4.096,1.458-8.329,2.172-12.148
		c-20.162-9.844-42.455-15.054-65.546-15.054c-9.411,0-18.685,0.875-27.742,2.563c3.033,0.729,6.064,1.474,9.058,2.251
		C134.551,39.544,137.967,40.495,140.438,41.26"/>
	<path fill="#BA9471" d="M208.712,111.408l-16.646-2.784l-1.144,6.85c16.558,5.233,22.419,25.767,24.455,37.992
		c2.983,17.869,2.19,40.437-2.229,63.545c-1.051,5.479-2.287,10.876-3.692,16.128c33.14-5.202,62.577-7.68,82.672-9.26
		c0.418-0.037,0.823-0.068,1.229-0.098c3.211-11.459,5.801-22.904,6.158-35.299l-0.027-0.396l-0.021-7.603
		c-0.07-27.851-7.714-54.522-21.933-77.677l-0.5,24.866c5.961,14.246,9.497,29.505,10.388,45.262
		c-6.615-1.535-13.436-2.938-20.404-4.234l3.319-94.612l-3.162-0.527l1.769-10.591l-2.717-0.454l-1.77,10.589l-4.036-0.673
		l1.785-10.7l-2.716-0.455l-1.786,10.7l-2.8-0.465l-9.19,32.413l-2.918-0.486l2.992-17.888l-4.694-0.787l4.694-28.085l-7.606-1.271
		l4.889-29.274l-2.769-0.463l2.722-16.304l-2.717-0.455l-2.727,16.306l-3.037-0.511l2.716-16.28l-2.715-0.456l-2.722,16.285
		l-2.516-0.423l-10.731,64.242l-6.442-1.081L208.712,111.408z"/>
	<path fill="#BA9471" d="M11.388,176.295c1.914-33.871,16.039-65.441,40.243-89.589c9.281-9.259,19.655-17.024,30.824-23.194
		c-0.147-0.005-0.288-0.01-0.436-0.016c-2.856-0.091-5.647-0.137-8.295-0.137c-1.519,0-2.964,0.014-4.316,0.044
		c-3.36,0.067-6.21,0.224-7.825,0.429c-0.27,0.033-0.411,0.057-0.458,0.066l-0.267,0.054L60.7,63.979
		c-0.332,0.055-0.651,0.101-0.97,0.146c-5.767,4.301-11.265,9.041-16.449,14.213c-28.231,28.165-43.836,65.634-43.26,105.11
		L0,191.05l0.015,0.223c0.466,16.13,3.504,31.615,8.705,46.066c1.283-9.489,3.164-19.253,5.655-29.099
		c3.129-12.367,7.022-24.154,11.541-35.059C20.985,174.16,16.134,175.193,11.388,176.295"/>
	<path fill="#BA9471" d="M123.164,221.353c-0.695,3.278-1.448,6.56-2.276,9.834c-2.134,8.438-4.669,16.663-7.529,24.53
		c4.304-1.436,8.629-2.807,12.967-4.113c-0.607-8.646-0.459-18.095,0.449-28.107C125.461,222.976,124.25,222.242,123.164,221.353"/>
	<path fill="#121422" d="M159.843,280.861c-0.409,0-0.817-0.037-1.211-0.115c-12.082-2.311-14.861-35.279-10.628-65.262l31.611-2.24
		c1.201-0.088,2.293-0.637,3.078-1.543c0.793-0.905,1.181-2.068,1.093-3.27c-0.165-2.345-2.138-4.182-4.491-4.182l-29.496,0.502
		c1.072-5.48,2.349-10.954,3.82-16.274c0.144-0.299,0.258-0.6,0.341-0.899l0.026-0.078l0.047-0.228l0.351-1.501
		c8-27.446,20.746-47.466,30.288-47.466c0.408,0,0.812,0.041,1.211,0.113c5.471,1.051,9.678,9.376,11.551,22.851
		c2.021,14.541,1.086,33.232-2.625,52.631C186.887,255.262,170.493,280.861,159.843,280.861 M136.14,204.943L114.136,89.846
		l51.695,1.681l-27.613,113.417H136.14L136.14,204.943z M101.309,225.688c-12.01,47.462-33.474,75.825-47.285,75.825
		c-0.823,0-1.62-0.102-2.391-0.291c-13.868-3.514-20.3-40.543-7.772-90.07c11.575-45.748,31.937-73.743,45.764-75.688L64.29,221.072
		c-1.024,3.479,0.963,7.146,4.445,8.176c0.605,0.182,1.237,0.274,1.868,0.274c2.893,0,5.485-1.94,6.303-4.713l24.435-82.556
		C110.116,156.603,110.292,190.186,101.309,225.688 M313.45,233.477c-2.169-0.031-4.803-0.048-7.825,0.051
		c-3.027,0.035-6.427,0.284-10.145,0.508c-3.709,0.334-7.738,0.621-11.975,1.201c-4.249,0.45-8.691,1.174-13.303,1.909
		c-4.607,0.722-9.314,1.75-14.135,2.656c-4.764,1.137-9.646,2.16-14.463,3.426c-4.787,1.345-9.65,2.509-14.326,3.988
		c-4.67,1.491-9.322,2.827-13.74,4.358c-4.412,1.561-8.68,3.066-12.723,4.492c-3.987,1.572-7.762,3.059-11.246,4.434
		c-0.252,0.102-0.494,0.195-0.743,0.295c6.028-12.659,11.124-28.407,14.466-45.858c4.182-21.852,4.958-43.042,2.186-59.657
		c-2.903-17.429-9.5-27.979-18.578-29.719c-0.863-0.165-1.754-0.248-2.644-0.248c-6.003,0-12.206,3.669-18.282,10.732l14.93-64.049
		c1.32,0.124,2.463,0.21,3.472,0.264c0.202,0.011,0.403,0.016,0.601,0.016c4.006,0,7.266-2.086,7.752-4.957
		c0.166-0.96,0.306-4.236-4.812-6.028c-3.183-1.12-10.765-1.995-17.252-1.995c-10.199,0-12.29,2.133-12.973,3.987
		c-0.456,1.252-0.45,3.218,2.188,5.461l0.522,0.443l0.674,0.114c0.052,0.005,4.553,0.755,9.878,1.495l-2.976,12.059L113.19,77.08
		l6.293-23.188c2.649,0.557,5.257,1.128,7.787,1.703c3.643,0.83,6.867,1.628,9.077,2.232c1.003,0.279,1.785,0.515,2.25,0.675
		c0.109,0.042,0.181,0.07,0.249,0.091l0.042,0.022c0.688,0.358,1.381,0.528,2.075,0.528c1.619,0,3.094-0.893,3.844-2.328
		c1.086-2.086,0.337-4.629-1.713-5.785l-0.227-0.122c-0.26-0.146-0.927-0.449-1.299-0.582c-0.616-0.24-1.558-0.556-2.758-0.924
		c-2.349-0.727-5.599-1.63-9.392-2.615c-4.327-1.123-8.782-2.216-13.242-3.241c-4.885-1.111-10.127-2.263-15.436-3.167
		c-2.39-0.414-4.983-0.75-8.15-1.055c-2.427-0.233-4.973-0.434-7.767-0.609c-4.761-0.295-9.521-0.477-13.769-0.518L69.3,38.192
		c-3.426,0-6.237,0.102-8.358,0.301c-1.112,0.108-2.406,0.265-3.617,0.603c-0.765,0.22-1.387,0.481-1.972,0.823l-0.393,0.254
		c-0.316,0.229-0.496,0.375-0.626,0.49l-0.274,0.26c-2.23,2.356-2.122,5.911,0.124,8.03c1.045,0.983,2.887,1.415,6.639,0.784
		c0.259-0.054,0.699-0.135,1.315-0.209c2.033-0.259,5.216-0.44,8.977-0.515c1.429-0.032,2.955-0.047,4.559-0.047
		c2.81,0,5.718,0.049,8.652,0.142c2.712,0.088,5.139,0.207,7.436,0.36c2.975,0.198,5.273,0.422,7.457,0.732
		c2.68,0.374,5.562,0.846,8.937,1.461l-13.477,49.67l-4.274,14.966c-2.923-0.136-6.581,0.796-6.581,0.796
		c-21.718,6.649-44.901,43.446-56.802,90.494c-14.448,57.092-6.95,106.572,17.055,112.646c1.599,0.408,3.255,0.609,4.921,0.609
		h0.005c23.079-0.004,50.448-39.377,63.653-91.59c4.72-18.654,7.1-36.874,7.234-53.049l7.235,35.734
		c0.553,2.713,2.887,4.616,5.557,4.616c0.135,0,0.274-0.005,0.409-0.017l3.384-0.237c-5.237,40.952,2.427,72.544,18.577,75.638
		c0.864,0.166,1.754,0.248,2.644,0.248c8.089,0,16.611-7.049,24.275-18.953c0.588-0.305,1.189-0.619,1.816-0.943
		c2.643-1.414,5.689-2.844,9.025-4.393c3.336-1.553,6.953-3.238,10.778-5.018c3.886-1.643,7.983-3.377,12.224-5.168
		c4.25-1.771,8.734-3.357,13.252-5.104c4.519-1.742,9.22-3.166,13.871-4.781c4.67-1.537,9.416-2.83,14.054-4.244
		c4.692-1.176,9.294-2.48,13.803-3.467c4.511-1,8.868-1.983,13.049-2.688c4.158-0.824,8.13-1.351,11.79-1.906
		c3.669-0.442,7.038-0.899,10.042-1.116c2.994-0.279,5.614-0.418,7.779-0.521c4.317-0.166,6.795-0.074,6.795-0.074
		S317.785,233.57,313.45,233.477"/>
</g>
</svg>
